<?xml version="1.0"?>
<svg xmlns="http://www.w3.org/2000/svg" xmlns:xlink="http://www.w3.org/1999/xlink" xmlns:svgjs="http://svgjs.com/svgjs" version="1.1" width="512" height="512" x="0" y="0" viewBox="0 0 196.261 196.261" style="enable-background:new 0 0 512 512" xml:space="preserve" class=""><g>
<g xmlns="http://www.w3.org/2000/svg">
	<g>
		<polygon points="114.486,46.192 81.775,46.192 98.13,74.526   " fill="#000000" data-original="#000000" style="" class=""/>
		<polygon points="77.685,48.554 61.33,76.887 94.04,76.887   " fill="#000000" data-original="#000000" style="" class=""/>
		<polygon points="134.931,76.887 118.576,48.554 102.22,76.887   " fill="#000000" data-original="#000000" style="" class=""/>
		<polygon points="102.22,81.607 118.576,109.935 134.931,81.607   " fill="#000000" data-original="#000000" style="" class=""/>
		<polygon points="61.33,81.607 77.685,109.935 94.04,81.607   " fill="#000000" data-original="#000000" style="" class=""/>
		<polygon points="40.885,112.293 73.592,112.293 57.24,83.968   " fill="#000000" data-original="#000000" style="" class=""/>
		<polygon points="155.376,112.293 139.021,83.968 122.671,112.293   " fill="#000000" data-original="#000000" style="" class=""/>
		<polygon points="98.13,13.14 81.775,41.473 114.486,41.473   " fill="#000000" data-original="#000000" style="" class=""/>
		<polygon points="139.021,145.346 155.376,117.016 122.671,117.016   " fill="#000000" data-original="#000000" style="" class=""/>
		<polygon points="57.24,145.346 73.592,117.016 40.885,117.016   " fill="#000000" data-original="#000000" style="" class=""/>
		<polygon points="20.439,147.704 53.146,147.704 36.794,119.374   " fill="#000000" data-original="#000000" style="" class=""/>
		<polygon points="175.822,147.704 159.466,119.374 143.111,147.704   " fill="#000000" data-original="#000000" style="" class=""/>
		<polygon points="143.111,152.433 159.466,180.757 175.822,152.433   " fill="#000000" data-original="#000000" style="" class=""/>
		<polygon points="102.22,152.433 118.576,180.757 134.931,152.433   " fill="#000000" data-original="#000000" style="" class=""/>
		<polygon points="36.794,180.757 53.146,152.433 20.439,152.433   " fill="#000000" data-original="#000000" style="" class=""/>
		<polygon points="0,183.121 32.701,183.121 16.346,154.785   " fill="#000000" data-original="#000000" style="" class=""/>
		<polygon points="81.775,183.121 114.486,183.121 98.13,154.785   " fill="#000000" data-original="#000000" style="" class=""/>
		<polygon points="122.671,183.121 155.376,183.121 139.021,154.785   " fill="#000000" data-original="#000000" style="" class=""/>
		<polygon points="179.912,154.785 163.563,183.121 196.261,183.121   " fill="#000000" data-original="#000000" style="" class=""/>
	</g>
</g>
<g xmlns="http://www.w3.org/2000/svg">
</g>
<g xmlns="http://www.w3.org/2000/svg">
</g>
<g xmlns="http://www.w3.org/2000/svg">
</g>
<g xmlns="http://www.w3.org/2000/svg">
</g>
<g xmlns="http://www.w3.org/2000/svg">
</g>
<g xmlns="http://www.w3.org/2000/svg">
</g>
<g xmlns="http://www.w3.org/2000/svg">
</g>
<g xmlns="http://www.w3.org/2000/svg">
</g>
<g xmlns="http://www.w3.org/2000/svg">
</g>
<g xmlns="http://www.w3.org/2000/svg">
</g>
<g xmlns="http://www.w3.org/2000/svg">
</g>
<g xmlns="http://www.w3.org/2000/svg">
</g>
<g xmlns="http://www.w3.org/2000/svg">
</g>
<g xmlns="http://www.w3.org/2000/svg">
</g>
<g xmlns="http://www.w3.org/2000/svg">
</g>
</g></svg>
